<svg width="133" height="46" viewBox="0 0 133 46" fill="none" xmlns="http://www.w3.org/2000/svg">
<path d="M18.2171 27.5503C18.2372 27.5416 18.2552 27.5339 18.2706 27.5276L18.2707 27.5275C18.4998 27.4334 18.7255 27.3345 18.9483 27.2322C18.9513 27.2308 18.9544 27.2294 18.9574 27.228C19.1767 27.1272 19.3932 27.0231 19.6072 26.9168M18.2171 27.5503L18.0662 27.0301C18.2246 26.9068 18.3879 26.7895 18.548 26.6784C18.8333 26.4565 19.0435 26.2613 19.1969 26.09C19.197 26.0899 19.197 26.0899 19.1971 26.0898C19.2196 26.0647 19.2409 26.0401 19.261 26.016L19.6449 26.3363L19.8713 26.7821C19.844 26.796 19.8139 26.8115 19.7824 26.8277C19.7256 26.857 19.6643 26.8885 19.6072 26.9168M18.2171 27.5503C18.2326 27.5374 18.2483 27.5245 18.2641 27.5117C18.2641 27.5116 18.2641 27.5116 18.2642 27.5116C18.4469 27.3629 18.6444 27.2198 18.844 27.0816L18.2171 27.5503ZM19.6072 26.9168C19.6073 26.9168 19.6074 26.9167 19.6075 26.9167L19.4339 26.5671C19.4339 26.5671 19.4338 26.5671 19.4338 26.5672L19.6072 26.9168ZM33.6492 21.1213L33.4246 21.4872L33.3694 21.4704L33.1744 21.5965C32.762 21.8632 32.1711 21.9967 31.4867 21.825L31.2441 22.6956C31.0966 22.6558 30.9534 22.6189 30.8163 22.5862C30.5054 22.5119 30.2076 22.4541 29.9497 22.4318C29.7356 22.4132 29.4614 22.4091 29.2274 22.5102C28.9719 22.5873 28.2966 22.8382 27.6658 23.0782C26.9814 23.3386 26.2778 23.6138 26.0946 23.6955C24.5633 24.378 24.018 24.816 22.9647 25.6619C22.8216 25.7768 22.6692 25.8993 22.5036 26.0309L22.5035 26.0309L22.4991 26.0345C22.1644 26.3069 21.8217 26.5569 21.4615 26.7743C21.1018 26.9913 20.7243 27.1757 20.3197 27.3171L20.2836 27.3297L20.2498 27.3477C19.8289 27.5716 19.4131 27.7915 18.9929 28.0001L18.9928 28.0002C18.5731 28.2087 18.151 28.4048 17.7207 28.5817C17.6407 28.6146 17.5755 28.6436 17.5158 28.6701C17.4579 28.6958 17.4052 28.7192 17.3493 28.7416C17.6813 28.5146 18.0224 28.2931 18.3691 28.0719L18.4019 28.051L18.431 28.0252C18.6348 27.8454 18.8735 27.6694 19.1286 27.4927L19.1396 27.4851L19.1502 27.4769C19.5223 27.1885 19.8112 26.9174 20.0287 26.6567L19.4184 25.8906C19.3804 25.9099 19.346 25.9276 19.3131 25.9446C19.2623 25.9707 19.2149 25.9951 19.1629 26.0209L19.1627 26.021C18.743 26.2295 18.3208 26.4257 17.8905 26.6027C17.8102 26.6356 17.7448 26.6647 17.685 26.6912C17.6274 26.7168 17.5749 26.7401 17.5192 26.7624C17.8511 26.5354 18.1922 26.314 18.5389 26.0928L18.5719 26.0717L18.6012 26.0458C18.6006 26.0463 18.6134 26.0355 18.6489 26.01C18.6812 25.9868 18.7234 25.9577 18.775 25.9231C18.8782 25.854 19.0103 25.7687 19.159 25.6743C19.4205 25.5083 19.7247 25.3197 19.998 25.1503C20.0355 25.127 20.0725 25.1041 20.1086 25.0817L20.5198 24.8267L20.2784 24.4074C20.2013 24.2734 20.0867 24.149 20.0164 24.0727C20.0128 24.0688 20.0093 24.065 20.006 24.0613C19.9127 23.9599 19.8761 23.9171 19.8617 23.8927L19.8617 23.8927C19.8338 23.8456 19.8367 23.8238 19.8373 23.8189L19.8374 23.8186C19.8386 23.8093 19.8451 23.7832 19.879 23.7443C19.9542 23.6579 20.1101 23.5749 20.2848 23.5642L20.285 23.5642C20.4597 23.5535 20.6246 23.5629 20.7472 23.5754C20.8079 23.5817 20.8565 23.5885 20.8887 23.5935C20.9048 23.5961 20.9167 23.5981 20.9238 23.5994L20.9307 23.6007L20.9308 23.6007L20.9311 23.6007L20.9315 23.6008L21.1207 23.6385L21.2868 23.538L21.028 23.1102L21.2869 23.538L21.2869 23.538L21.287 23.5379L21.2873 23.5377L21.2886 23.5369L21.2931 23.5342L21.3099 23.5239L21.3694 23.4875C21.4185 23.4574 21.4848 23.4163 21.5525 23.3735C21.6193 23.3312 21.6914 23.2846 21.7506 23.2442C21.7795 23.2243 21.8108 23.2023 21.8386 23.1808C21.8521 23.1703 21.8703 23.1558 21.8891 23.1389L21.8901 23.138C21.8918 23.1364 21.8944 23.1341 21.8977 23.131C22.2924 22.8273 22.5905 22.5325 22.8767 22.2495C23.5355 21.5981 24.1318 21.0085 25.6997 20.5125C27.379 19.9814 28.0712 20.1511 28.8372 20.3389C29.1513 20.4159 29.4779 20.4959 29.89 20.5319L31.3802 20.6619L30.2677 19.6619C29.2752 18.7698 28.0274 18.4362 26.8995 18.1347C26.8394 18.1186 26.7797 18.1026 26.7204 18.0867C26.6101 18.0551 26.4306 18.0187 26.2446 17.9824C26.4312 17.9612 26.6235 17.9619 26.8223 17.9811L26.8223 17.9812L26.8291 17.9817C27.4968 18.0369 28.1564 18.2237 28.8363 18.4682C29.1761 18.5903 29.5149 18.7247 29.8616 18.8624L29.8888 18.8732C30.2243 19.0066 30.5675 19.143 30.913 19.2683L32.4669 19.8321L31.4859 18.5016C31.2031 18.118 30.7656 17.7932 30.3486 17.5263C30.0385 17.3278 29.7026 17.1392 29.4074 16.9733C29.3021 16.9143 29.2021 16.8581 29.1102 16.8053C29.0495 16.7705 28.9924 16.7373 28.939 16.7055C29.423 16.6296 29.8118 16.6789 30.1392 16.7955C30.5546 16.9434 30.9128 17.2146 31.2601 17.5674C31.5141 17.8254 31.7396 18.1016 31.9769 18.392C32.0736 18.5104 32.1722 18.6312 32.2755 18.7541C32.6109 19.1531 32.9912 19.5677 33.454 19.8477C33.5204 19.8928 33.5779 19.9303 33.6263 19.9616C33.6376 19.9689 33.648 19.9756 33.6577 19.9819C33.6948 20.0058 33.7218 20.0233 33.7459 20.0395C33.7503 20.0425 33.7544 20.0453 33.758 20.0478C33.7588 20.052 33.7597 20.0566 33.7607 20.0617C33.7723 20.1249 33.7827 20.2085 33.7998 20.3463C33.8033 20.3745 33.807 20.4048 33.8112 20.4377L33.8112 20.4378C33.8395 20.6638 33.7852 20.8998 33.6492 21.1213ZM35.4958 23.7716C35.5011 23.7695 35.5042 23.7688 35.5045 23.769C35.5047 23.7692 35.5021 23.7702 35.4958 23.7716ZM19.7348 24.7252C19.1513 25.0869 18.4136 25.5442 18.2699 25.6713L19.4315 24.1476C19.4548 24.1869 19.486 24.2277 19.5211 24.2694C19.5415 24.2567 19.5617 24.2442 19.5815 24.2319L19.8245 24.6236C19.8319 24.6348 19.8388 24.6458 19.8451 24.6568C19.8091 24.6791 19.7723 24.702 19.7348 24.7252ZM17.132 27.0332L17.1322 27.0331L17.132 27.0332Z" fill="white" stroke="white"/>
<path d="M43.5 12V33.5" stroke="white" stroke-linecap="round"/>
<path d="M51.48 28.25V18.17H55.736C55.834 18.17 55.9647 18.1747 56.128 18.184C56.296 18.1887 56.4453 18.2027 56.576 18.226C57.178 18.3193 57.6703 18.5177 58.053 18.821C58.4403 19.1243 58.725 19.507 58.907 19.969C59.089 20.4263 59.18 20.9373 59.18 21.502C59.18 22.0667 59.0867 22.58 58.9 23.042C58.718 23.4993 58.4333 23.8797 58.046 24.183C57.6633 24.4863 57.1733 24.6847 56.576 24.778C56.4453 24.7967 56.296 24.8107 56.128 24.82C55.96 24.8293 55.8293 24.834 55.736 24.834H53.384V28.25H51.48ZM53.384 23.056H55.652C55.75 23.056 55.8573 23.0513 55.974 23.042C56.0907 23.0327 56.198 23.014 56.296 22.986C56.5527 22.916 56.751 22.7993 56.891 22.636C57.031 22.468 57.1267 22.2837 57.178 22.083C57.234 21.8777 57.262 21.684 57.262 21.502C57.262 21.32 57.234 21.1287 57.178 20.928C57.1267 20.7227 57.031 20.5383 56.891 20.375C56.751 20.207 56.5527 20.088 56.296 20.018C56.198 19.99 56.0907 19.9713 55.974 19.962C55.8573 19.9527 55.75 19.948 55.652 19.948H53.384V23.056ZM62.2351 28.46C61.6937 28.46 61.2341 28.3573 60.8561 28.152C60.4827 27.942 60.1981 27.6643 60.0021 27.319C59.8107 26.969 59.7151 26.584 59.7151 26.164C59.7151 25.814 59.7687 25.4943 59.8761 25.205C59.9834 24.9157 60.1561 24.6613 60.3941 24.442C60.6367 24.218 60.9611 24.0313 61.3671 23.882C61.6471 23.7793 61.9807 23.6883 62.3681 23.609C62.7554 23.5297 63.1941 23.455 63.6841 23.385C64.1741 23.3103 64.7131 23.2287 65.3011 23.14L64.6151 23.518C64.6151 23.07 64.5077 22.741 64.2931 22.531C64.0784 22.321 63.7191 22.216 63.2151 22.216C62.9351 22.216 62.6434 22.2837 62.3401 22.419C62.0367 22.5543 61.8244 22.7947 61.7031 23.14L59.9811 22.594C60.1724 21.9687 60.5317 21.46 61.0591 21.068C61.5864 20.676 62.3051 20.48 63.2151 20.48C63.8824 20.48 64.4751 20.5827 64.9931 20.788C65.5111 20.9933 65.9031 21.348 66.1691 21.852C66.3184 22.132 66.4071 22.412 66.4351 22.692C66.4631 22.972 66.4771 23.2847 66.4771 23.63V28.25H64.8111V26.696L65.0491 27.018C64.6804 27.5267 64.2814 27.8953 63.8521 28.124C63.4274 28.348 62.8884 28.46 62.2351 28.46ZM62.6411 26.962C62.9911 26.962 63.2851 26.9013 63.5231 26.78C63.7657 26.654 63.9571 26.5117 64.0971 26.353C64.2417 26.1943 64.3397 26.0613 64.3911 25.954C64.4891 25.7487 64.5451 25.5107 64.5591 25.24C64.5777 24.9647 64.5871 24.736 64.5871 24.554L65.1471 24.694C64.5824 24.7873 64.1251 24.8667 63.7751 24.932C63.4251 24.9927 63.1427 25.0487 62.9281 25.1C62.7134 25.1513 62.5244 25.2073 62.3611 25.268C62.1744 25.3427 62.0227 25.4243 61.9061 25.513C61.7941 25.597 61.7101 25.6903 61.6541 25.793C61.6027 25.8957 61.5771 26.01 61.5771 26.136C61.5771 26.3087 61.6191 26.458 61.7031 26.584C61.7917 26.7053 61.9154 26.7987 62.0741 26.864C62.2327 26.9293 62.4217 26.962 62.6411 26.962ZM68.5394 31.61L69.9954 27.606L70.0234 28.782L66.7334 20.69H68.7074L70.9194 26.416H70.4714L72.6694 20.69H74.5734L70.3034 31.61H68.5394ZM78.9677 28.46C78.2164 28.46 77.5887 28.285 77.0847 27.935C76.5807 27.585 76.2004 27.109 75.9437 26.507C75.6917 25.905 75.5657 25.226 75.5657 24.47C75.5657 23.714 75.6917 23.035 75.9437 22.433C76.1957 21.831 76.5667 21.355 77.0567 21.005C77.5467 20.655 78.1511 20.48 78.8697 20.48C79.5931 20.48 80.2231 20.6527 80.7597 20.998C81.2964 21.3433 81.7117 21.817 82.0057 22.419C82.3044 23.0163 82.4537 23.7 82.4537 24.47C82.4537 25.226 82.3067 25.905 82.0127 26.507C81.7234 27.109 81.3174 27.585 80.7947 27.935C80.2721 28.285 79.6631 28.46 78.9677 28.46ZM75.2437 28.25V18.17H77.1617V23.07H76.9237V28.25H75.2437ZM78.6597 26.766C79.0704 26.766 79.4064 26.6633 79.6677 26.458C79.9291 26.2527 80.1227 25.9773 80.2487 25.632C80.3747 25.282 80.4377 24.8947 80.4377 24.47C80.4377 24.05 80.3724 23.6673 80.2417 23.322C80.1111 22.972 79.9081 22.6943 79.6327 22.489C79.3621 22.279 79.0144 22.174 78.5897 22.174C78.1931 22.174 77.8711 22.2697 77.6237 22.461C77.3811 22.6523 77.2037 22.9207 77.0917 23.266C76.9797 23.6113 76.9237 24.0127 76.9237 24.47C76.9237 24.9273 76.9797 25.3287 77.0917 25.674C77.2037 26.0193 77.3857 26.2877 77.6377 26.479C77.8944 26.6703 78.2351 26.766 78.6597 26.766ZM86.5081 28.474C85.9154 28.474 85.4324 28.3737 85.0591 28.173C84.6857 27.9723 84.3941 27.718 84.1841 27.41C83.9787 27.102 83.8317 26.7823 83.7431 26.451C83.6544 26.115 83.6007 25.8093 83.5821 25.534C83.5634 25.2587 83.5541 25.058 83.5541 24.932V20.69H85.4861V24.26C85.4861 24.4327 85.4954 24.6543 85.5141 24.925C85.5327 25.191 85.5911 25.4593 85.6891 25.73C85.7871 26.0007 85.9457 26.227 86.1651 26.409C86.3891 26.591 86.7041 26.682 87.1101 26.682C87.2734 26.682 87.4484 26.6563 87.6351 26.605C87.8217 26.5537 87.9967 26.4557 88.1601 26.311C88.3234 26.1617 88.4564 25.9447 88.5591 25.66C88.6664 25.3707 88.7201 24.9927 88.7201 24.526L89.8121 25.044C89.8121 25.6413 89.6907 26.2013 89.4481 26.724C89.2054 27.2467 88.8391 27.669 88.3491 27.991C87.8637 28.313 87.2501 28.474 86.5081 28.474ZM88.9581 28.25V25.744H88.7201V20.69H90.6381V28.25H88.9581ZM97.4465 28.25V24.68C97.4465 24.5073 97.4371 24.288 97.4185 24.022C97.3998 23.7513 97.3415 23.4807 97.2435 23.21C97.1455 22.9393 96.9845 22.713 96.7605 22.531C96.5411 22.349 96.2285 22.258 95.8225 22.258C95.6591 22.258 95.4841 22.2837 95.2975 22.335C95.1108 22.3863 94.9358 22.4867 94.7725 22.636C94.6091 22.7807 94.4738 22.9953 94.3665 23.28C94.2638 23.5647 94.2125 23.9427 94.2125 24.414L93.1205 23.896C93.1205 23.2987 93.2418 22.7387 93.4845 22.216C93.7271 21.6933 94.0911 21.271 94.5765 20.949C95.0665 20.627 95.6825 20.466 96.4245 20.466C97.0171 20.466 97.5001 20.5663 97.8735 20.767C98.2468 20.9677 98.5361 21.222 98.7415 21.53C98.9515 21.838 99.1008 22.16 99.1895 22.496C99.2781 22.8273 99.3318 23.1307 99.3505 23.406C99.3691 23.6813 99.3785 23.882 99.3785 24.008V28.25H97.4465ZM92.2805 28.25V20.69H93.9745V23.196H94.2125V28.25H92.2805ZM106.047 28.25V24.68C106.047 24.5073 106.038 24.288 106.019 24.022C106 23.7513 105.942 23.4807 105.844 23.21C105.746 22.9393 105.585 22.713 105.361 22.531C105.142 22.349 104.829 22.258 104.423 22.258C104.26 22.258 104.085 22.2837 103.898 22.335C103.711 22.3863 103.536 22.4867 103.373 22.636C103.21 22.7807 103.074 22.9953 102.967 23.28C102.864 23.5647 102.813 23.9427 102.813 24.414L101.721 23.896C101.721 23.2987 101.842 22.7387 102.085 22.216C102.328 21.6933 102.692 21.271 103.177 20.949C103.667 20.627 104.283 20.466 105.025 20.466C105.618 20.466 106.101 20.5663 106.474 20.767C106.847 20.9677 107.137 21.222 107.342 21.53C107.552 21.838 107.701 22.16 107.79 22.496C107.879 22.8273 107.932 23.1307 107.951 23.406C107.97 23.6813 107.979 23.882 107.979 24.008V28.25H106.047ZM100.881 28.25V20.69H102.575V23.196H102.813V28.25H100.881ZM110.188 31.61L111.644 27.606L111.672 28.782L108.382 20.69H110.356L112.568 26.416H112.12L114.318 20.69H116.222L111.952 31.61H110.188Z" fill="white"/>
</svg>
