<svg width="229" height="68" viewBox="0 0 229 68" fill="none" xmlns="http://www.w3.org/2000/svg">
<path d="M41.5916 32.2503L41.9368 31.6879C42.167 31.3128 42.2651 30.9024 42.2148 30.5008L42.2148 30.5007C42.2088 30.4527 42.2033 30.408 42.1981 30.3662C42.1725 30.1596 42.1558 30.0251 42.1368 29.9223C42.1218 29.8409 42.11 29.8095 42.1062 29.801C42.1004 29.7949 42.0774 29.7738 42.009 29.7274C41.9704 29.7013 41.9267 29.6731 41.8706 29.6369C41.8563 29.6277 41.8412 29.618 41.8252 29.6076C41.7518 29.5602 41.6656 29.504 41.5661 29.4362C40.9074 29.0391 40.3574 28.4435 39.8547 27.8455C39.7049 27.6673 39.5598 27.4896 39.4163 27.3139C39.0573 26.8744 38.7079 26.4465 38.3183 26.0509C37.7832 25.5073 37.2148 25.0722 36.5427 24.8328C35.8784 24.5963 35.0724 24.5364 34.0355 24.8102C34.0294 24.8118 34.0234 24.8134 34.0175 24.815C34.0439 24.8347 34.0731 24.8557 34.1053 24.8782C34.2854 25.0035 34.5173 25.143 34.7909 25.3C34.9325 25.3812 35.0851 25.4669 35.2445 25.5564C35.6858 25.8043 36.1795 26.0816 36.6382 26.3752C37.2587 26.7723 37.8821 27.2393 38.2776 27.7758L39.2586 29.1063L37.7047 28.5426C37.1902 28.3559 36.6784 28.1525 36.1742 27.9521L36.1348 27.9365C35.6152 27.73 35.1032 27.527 34.5891 27.3421C33.5605 26.9722 32.5474 26.6839 31.5143 26.5986L31.5074 26.598L31.5074 26.598C31.0231 26.5512 30.5556 26.5734 30.1028 26.6887C29.9167 26.7362 29.7315 26.7997 29.5469 26.8818C29.7064 26.9207 29.8879 26.9594 30.0767 26.9975C30.1923 27.0209 30.3139 27.0445 30.4348 27.068C30.7607 27.1313 31.0813 27.1936 31.2638 27.2461C31.3492 27.269 31.4349 27.292 31.521 27.315C33.2245 27.7709 35.0418 28.2571 36.4844 29.5539L37.597 30.5539L36.1067 30.4239C35.5313 30.3736 35.0595 30.2584 34.5961 30.1452C33.4271 29.8596 32.312 29.5871 29.7242 30.4056M41.5916 32.2503L22.8847 35.0688L23.0508 34.9682L22.792 34.5404L23.0509 34.9682L23.0509 34.9682L23.051 34.9681L23.0515 34.9678L23.0533 34.9667L23.06 34.9627L23.0849 34.9475L23.1732 34.8934C23.2463 34.8485 23.3447 34.7876 23.4451 34.7241C23.5445 34.6611 23.6496 34.5932 23.7346 34.535C23.7765 34.5064 23.8189 34.4764 23.8551 34.4485C23.8728 34.4348 23.8945 34.4174 23.9159 34.398L23.9169 34.3971C23.9204 34.394 23.9262 34.3887 23.9337 34.3815C24.495 33.9504 24.9312 33.5199 25.3574 33.0992C26.3634 32.1062 27.314 31.168 29.7242 30.4056M41.5916 32.2503L42.2264 32.4305C43.2268 32.7145 44.2139 33.0111 44.885 33.2958C44.916 33.309 44.9459 33.3219 44.9747 33.3347C44.811 33.3115 44.6228 33.2762 44.4117 33.2295C43.6828 33.0679 42.7808 32.7926 41.8557 32.5101C41.7589 32.4806 41.6618 32.4509 41.5646 32.4214L41.3424 32.3537L41.1474 32.4798C40.4685 32.9189 39.5106 33.1289 38.4192 32.855L38.1509 33.818C38.6631 33.9752 39.2595 34.142 39.8849 34.3169C40.8206 34.5786 41.8215 34.8585 42.7029 35.1515C43.3892 35.3797 43.9442 35.598 44.2926 35.7951C44.0776 35.792 43.7904 35.7553 43.4354 35.6849C42.6308 35.5254 41.5985 35.2186 40.5183 34.8894C40.4126 34.8572 40.3065 34.8248 40.2001 34.7923C39.233 34.497 38.2486 34.1963 37.4164 33.9976C36.9547 33.8873 36.5217 33.8038 36.153 33.7718C35.8311 33.7439 35.4686 33.7451 35.1777 33.8754C34.8257 33.9794 33.808 34.3568 32.8376 34.726C31.8082 35.1177 30.761 35.5276 30.4939 35.6467M41.5916 32.2503L30.6974 36.1034M29.7242 30.4056L29.5734 29.9288M29.7242 30.4056L29.5734 29.9288M29.5734 29.9288C32.3016 29.066 33.5763 29.3763 34.7779 29.6688C34.8842 29.6947 34.9899 29.7204 35.096 29.7452L24.9409 32.7997C25.9776 31.7792 27.0446 30.7288 29.5734 29.9288ZM18.1809 40.0103C18.0742 40.0541 17.9801 40.0958 17.8907 40.1353C17.7478 40.1986 17.6167 40.2566 17.4648 40.31C17.2351 40.3906 17.0659 40.4164 16.9374 40.3962L16.8548 40.3833L16.7725 40.3979C16.7707 40.3982 16.7689 40.3985 16.7673 40.3987C16.7653 40.3943 16.7631 40.3886 16.761 40.3813C16.7524 40.351 16.7521 40.3141 16.7617 40.2821C16.7702 40.2533 16.7843 40.2347 16.8025 40.2217L16.8027 40.2215C17.4857 39.7323 18.1982 39.2666 18.9239 38.8035L18.9568 38.7825L18.9861 38.7566C19.0141 38.7319 19.1059 38.6643 19.2734 38.5521C19.4306 38.4467 19.6308 38.3174 19.8546 38.1754C20.248 37.9258 20.7057 37.642 21.1155 37.3879C21.1717 37.3531 21.227 37.3188 21.2812 37.2852L21.6923 37.0302L21.451 36.6109C21.3497 36.435 21.195 36.2668 21.0866 36.149C21.0826 36.1447 21.0787 36.1405 21.0749 36.1363C20.9418 35.9916 20.8655 35.9059 20.8274 35.8417L20.8274 35.8416C20.7587 35.7257 20.7495 35.6372 20.7581 35.5707C20.7675 35.4993 20.8029 35.4157 20.88 35.3273C21.0416 35.1419 21.3407 34.9915 21.6621 34.9719L21.6622 34.9719C21.9416 34.9548 22.2032 34.9698 22.3964 34.9896C22.4923 34.9994 22.5696 35.0103 22.6217 35.0184C22.6477 35.0225 22.6674 35.0259 22.6798 35.0281L22.6928 35.0305L22.6942 35.0308L22.6944 35.0308L22.6945 35.0308L22.6947 35.0309L22.695 35.0309L20.7173 39.3796M18.1809 40.0103L18.3709 40.4728L18.1808 40.0103C18.1808 40.0103 18.1809 40.0103 18.1809 40.0103ZM18.1809 40.0103C18.8331 39.7421 19.472 39.445 20.1052 39.1306L20.1054 39.1305C20.1846 39.0912 20.2589 39.0529 20.3368 39.0128C20.386 38.9875 20.4366 38.9614 20.4908 38.9339L21.1012 39.7C20.7895 40.0735 20.3705 40.4679 19.8222 40.8928L19.8116 40.901L19.8006 40.9086C19.415 41.1757 19.0477 41.4461 18.7311 41.7255L18.702 41.7513L18.6692 41.7722C17.9435 42.2352 17.2311 42.7009 16.548 43.1902M16.548 43.1902C16.5481 43.1901 16.5481 43.1901 16.5481 43.1901L16.2569 42.7837L16.548 43.1902ZM16.548 43.1902C16.5299 43.2032 16.5158 43.2219 16.5072 43.2508C16.4976 43.283 16.4978 43.32 16.5065 43.3502C16.5086 43.3574 16.5107 43.363 16.5127 43.3673M16.5127 43.3673C16.5019 43.3689 16.4971 43.3683 16.4971 43.3683C16.4971 43.3683 16.4977 43.3683 16.4988 43.3686C16.5037 43.3696 16.5102 43.3723 16.5158 43.3763C16.5186 43.3783 16.5198 43.3795 16.5198 43.3795C16.5198 43.3795 16.5166 43.3761 16.5127 43.3673ZM16.5127 43.3673C16.5142 43.3671 16.5158 43.3669 16.5176 43.3665L16.6 43.3519L16.6827 43.3649C16.8113 43.385 16.9806 43.3593 17.2103 43.2786C17.3624 43.2252 17.4937 43.167 17.637 43.1036C17.7261 43.0642 17.8199 43.0226 17.9261 42.979C18.5784 42.7108 19.217 42.414 19.8505 42.0993L19.8505 42.0992C20.4843 41.7845 21.1108 41.4532 21.7421 41.1173L21.7759 41.0994L21.812 41.0867C22.4373 40.8683 23.0191 40.5838 23.5713 40.2506C24.1242 39.917 24.6479 39.5347 25.1564 39.1208L25.1609 39.1172L25.1609 39.1172C25.4104 38.9189 25.6397 38.7348 25.8545 38.5623C27.4298 37.2971 28.2268 36.6571 30.4939 35.6467M30.4939 35.6467C30.4938 35.6467 30.4938 35.6467 30.4938 35.6467L30.6974 36.1034M30.4939 35.6467L30.6974 36.1034M30.6974 36.1034C28.4903 37.0871 27.7354 37.6932 26.1693 38.9508C25.9541 39.1236 25.7237 39.3086 25.472 39.5086C24.9503 39.9332 24.4073 40.3301 23.8297 40.6787C23.252 41.0272 22.639 41.3274 21.977 41.5588C21.3456 41.8946 20.7136 42.2289 20.0729 42.5471C19.4319 42.8655 18.7823 43.1676 18.1162 43.4414C18.0354 43.4746 17.9517 43.5115 17.866 43.5493C17.4644 43.7264 17.0172 43.9235 16.6052 43.8588C15.9919 43.968 15.7895 43.1186 16.2569 42.7837C16.9509 42.2866 17.6722 41.8152 18.4002 41.3507C18.7115 41.0759 19.0632 40.814 19.4222 40.5628C19.4575 40.5468 19.4927 40.5308 19.5278 40.5147C19.5282 40.5146 19.5285 40.5144 19.5289 40.5143C19.8733 40.3567 20.2134 40.1934 20.55 40.0262M20.55 40.0262C20.5499 40.0263 20.5499 40.0263 20.5498 40.0263L20.4007 39.7259C20.4008 39.7258 20.4008 39.7258 20.4008 39.7258L20.55 40.0262ZM20.55 40.0262C20.6342 39.9845 20.7223 39.9391 20.8062 39.8959C20.8539 39.8714 20.9003 39.8475 20.9438 39.8254L20.7173 39.3796M20.7173 39.3796L20.3334 39.0593C20.2818 39.1211 20.2257 39.1847 20.1647 39.2501C20.1647 39.2501 20.1647 39.2502 20.1646 39.2502C19.9287 39.5033 19.6202 39.7835 19.2201 40.0943M20.7173 39.3796C20.6685 39.4044 20.6199 39.4294 20.5714 39.4544C20.4903 39.4962 20.4093 39.5379 20.3276 39.5784C19.9679 39.757 19.6053 39.9307 19.2386 40.0971L19.2313 40.0865C19.2275 40.0891 19.2238 40.0917 19.2201 40.0943M19.2201 40.0943C19.2048 40.1049 19.1894 40.1156 19.1741 40.1263C19.1874 40.1202 19.2008 40.1142 19.2142 40.1081L19.2097 40.1023C19.2132 40.0996 19.2166 40.0969 19.2201 40.0943ZM20.9868 36.8106L20.7541 36.4354C20.7365 36.4463 20.7188 36.4573 20.701 36.4684C20.8066 36.5832 20.9129 36.6991 20.9868 36.8106ZM45.539 33.662C45.5389 33.662 45.5379 33.6608 45.5362 33.6585C45.5383 33.6608 45.5391 33.662 45.539 33.662ZM33.801 24.6187C33.801 24.6187 33.8014 24.6192 33.802 24.6203C33.8013 24.6192 33.801 24.6187 33.801 24.6187ZM42.1049 29.7983C42.1049 29.7983 42.1052 29.7987 42.1057 29.7997L42.1049 29.7983Z" fill="#181930" stroke="#181930"/>
<path d="M53 23.25V44.75" stroke="#181930" stroke-linecap="round"/>
<path d="M62.24 46V22.96H71.968C72.192 22.96 72.4907 22.9707 72.864 22.992C73.248 23.0027 73.5893 23.0347 73.888 23.088C75.264 23.3013 76.3893 23.7547 77.264 24.448C78.1493 25.1413 78.8 26.016 79.216 27.072C79.632 28.1173 79.84 29.2853 79.84 30.576C79.84 31.8667 79.6267 33.04 79.2 34.096C78.784 35.1413 78.1333 36.0107 77.248 36.704C76.3733 37.3973 75.2533 37.8507 73.888 38.064C73.5893 38.1067 73.248 38.1387 72.864 38.16C72.48 38.1813 72.1813 38.192 71.968 38.192H66.592V46H62.24ZM66.592 34.128H71.776C72 34.128 72.2453 34.1173 72.512 34.096C72.7787 34.0747 73.024 34.032 73.248 33.968C73.8347 33.808 74.288 33.5413 74.608 33.168C74.928 32.784 75.1467 32.3627 75.264 31.904C75.392 31.4347 75.456 30.992 75.456 30.576C75.456 30.16 75.392 29.7227 75.264 29.264C75.1467 28.7947 74.928 28.3733 74.608 28C74.288 27.616 73.8347 27.344 73.248 27.184C73.024 27.12 72.7787 27.0773 72.512 27.056C72.2453 27.0347 72 27.024 71.776 27.024H66.592V34.128ZM87.2088 46.48C85.9714 46.48 84.9208 46.2453 84.0568 45.776C83.2034 45.296 82.5528 44.6613 82.1048 43.872C81.6674 43.072 81.4488 42.192 81.4488 41.232C81.4488 40.432 81.5714 39.7013 81.8168 39.04C82.0621 38.3787 82.4568 37.7973 83.0008 37.296C83.5554 36.784 84.2968 36.3573 85.2248 36.016C85.8648 35.7813 86.6274 35.5733 87.5128 35.392C88.3981 35.2107 89.4008 35.04 90.5208 34.88C91.6408 34.7093 92.8728 34.5227 94.2168 34.32L92.6488 35.184C92.6488 34.16 92.4034 33.408 91.9128 32.928C91.4221 32.448 90.6008 32.208 89.4488 32.208C88.8088 32.208 88.1421 32.3627 87.4488 32.672C86.7554 32.9813 86.2701 33.5307 85.9928 34.32L82.0568 33.072C82.4941 31.6427 83.3154 30.48 84.5208 29.584C85.7261 28.688 87.3688 28.24 89.4488 28.24C90.9741 28.24 92.3288 28.4747 93.5128 28.944C94.6968 29.4133 95.5928 30.224 96.2008 31.376C96.5421 32.016 96.7448 32.656 96.8088 33.296C96.8728 33.936 96.9048 34.6507 96.9048 35.44V46H93.0968V42.448L93.6408 43.184C92.7981 44.3467 91.8861 45.1893 90.9048 45.712C89.9341 46.224 88.7021 46.48 87.2088 46.48ZM88.1368 43.056C88.9368 43.056 89.6088 42.9173 90.1528 42.64C90.7074 42.352 91.1448 42.0267 91.4648 41.664C91.7954 41.3013 92.0194 40.9973 92.1368 40.752C92.3608 40.2827 92.4888 39.7387 92.5208 39.12C92.5634 38.4907 92.5848 37.968 92.5848 37.552L93.8648 37.872C92.5741 38.0853 91.5288 38.2667 90.7288 38.416C89.9288 38.5547 89.2834 38.6827 88.7928 38.8C88.3021 38.9173 87.8701 39.0453 87.4968 39.184C87.0701 39.3547 86.7234 39.5413 86.4568 39.744C86.2008 39.936 86.0088 40.1493 85.8808 40.384C85.7634 40.6187 85.7048 40.88 85.7048 41.168C85.7048 41.5627 85.8008 41.904 85.9928 42.192C86.1954 42.4693 86.4781 42.6827 86.8408 42.832C87.2034 42.9813 87.6354 43.056 88.1368 43.056ZM102.004 53.68L105.332 44.528L105.396 47.216L97.8763 28.72H102.388L107.444 41.808H106.42L111.444 28.72H115.796L106.036 53.68H102.004ZM126.226 46.48C124.509 46.48 123.074 46.08 121.922 45.28C120.77 44.48 119.901 43.392 119.314 42.016C118.738 40.64 118.45 39.088 118.45 37.36C118.45 35.632 118.738 34.08 119.314 32.704C119.89 31.328 120.738 30.24 121.858 29.44C122.978 28.64 124.36 28.24 126.002 28.24C127.656 28.24 129.096 28.6347 130.322 29.424C131.549 30.2133 132.498 31.296 133.17 32.672C133.853 34.0373 134.194 35.6 134.194 37.36C134.194 39.088 133.858 40.64 133.186 42.016C132.525 43.392 131.597 44.48 130.402 45.28C129.208 46.08 127.816 46.48 126.226 46.48ZM117.714 46V22.96H122.098V34.16H121.554V46H117.714ZM125.522 42.608C126.461 42.608 127.229 42.3733 127.826 41.904C128.424 41.4347 128.866 40.8053 129.154 40.016C129.442 39.216 129.586 38.3307 129.586 37.36C129.586 36.4 129.437 35.5253 129.138 34.736C128.84 33.936 128.376 33.3013 127.746 32.832C127.128 32.352 126.333 32.112 125.362 32.112C124.456 32.112 123.72 32.3307 123.154 32.768C122.6 33.2053 122.194 33.8187 121.938 34.608C121.682 35.3973 121.554 36.3147 121.554 37.36C121.554 38.4053 121.682 39.3227 121.938 40.112C122.194 40.9013 122.61 41.5147 123.186 41.952C123.773 42.3893 124.552 42.608 125.522 42.608ZM143.847 46.512C142.492 46.512 141.388 46.2827 140.535 45.824C139.682 45.3653 139.015 44.784 138.535 44.08C138.066 43.376 137.73 42.6453 137.527 41.888C137.324 41.12 137.202 40.4213 137.159 39.792C137.116 39.1627 137.095 38.704 137.095 38.416V28.72H141.511V36.88C141.511 37.2747 141.532 37.7813 141.575 38.4C141.618 39.008 141.751 39.6213 141.975 40.24C142.199 40.8587 142.562 41.376 143.063 41.792C143.575 42.208 144.295 42.416 145.223 42.416C145.596 42.416 145.996 42.3573 146.423 42.24C146.85 42.1227 147.25 41.8987 147.623 41.568C147.996 41.2267 148.3 40.7307 148.535 40.08C148.78 39.4187 148.903 38.5547 148.903 37.488L151.399 38.672C151.399 40.0373 151.122 41.3173 150.567 42.512C150.012 43.7067 149.175 44.672 148.055 45.408C146.946 46.144 145.543 46.512 143.847 46.512ZM149.447 46V40.272H148.903V28.72H153.287V46H149.447ZM169.235 46V37.84C169.235 37.4453 169.213 36.944 169.171 36.336C169.128 35.7173 168.995 35.0987 168.771 34.48C168.547 33.8613 168.179 33.344 167.667 32.928C167.165 32.512 166.451 32.304 165.523 32.304C165.149 32.304 164.749 32.3627 164.323 32.48C163.896 32.5973 163.496 32.8267 163.123 33.168C162.749 33.4987 162.44 33.9893 162.195 34.64C161.96 35.2907 161.843 36.1547 161.843 37.232L159.347 36.048C159.347 34.6827 159.624 33.4027 160.179 32.208C160.733 31.0133 161.565 30.048 162.675 29.312C163.795 28.576 165.203 28.208 166.899 28.208C168.253 28.208 169.357 28.4373 170.211 28.896C171.064 29.3547 171.725 29.936 172.195 30.64C172.675 31.344 173.016 32.08 173.219 32.848C173.421 33.6053 173.544 34.2987 173.587 34.928C173.629 35.5573 173.651 36.016 173.651 36.304V46H169.235ZM157.427 46V28.72H161.299V34.448H161.843V46H157.427ZM189.278 46V37.84C189.278 37.4453 189.257 36.944 189.214 36.336C189.172 35.7173 189.038 35.0987 188.814 34.48C188.59 33.8613 188.222 33.344 187.71 32.928C187.209 32.512 186.494 32.304 185.566 32.304C185.193 32.304 184.793 32.3627 184.366 32.48C183.94 32.5973 183.54 32.8267 183.166 33.168C182.793 33.4987 182.484 33.9893 182.238 34.64C182.004 35.2907 181.886 36.1547 181.886 37.232L179.39 36.048C179.39 34.6827 179.668 33.4027 180.222 32.208C180.777 31.0133 181.609 30.048 182.718 29.312C183.838 28.576 185.246 28.208 186.942 28.208C188.297 28.208 189.401 28.4373 190.254 28.896C191.108 29.3547 191.769 29.936 192.238 30.64C192.718 31.344 193.06 32.08 193.262 32.848C193.465 33.6053 193.588 34.2987 193.63 34.928C193.673 35.5573 193.694 36.016 193.694 36.304V46H189.278ZM177.47 46V28.72H181.342V34.448H181.886V46H177.47ZM199.129 53.68L202.457 44.528L202.521 47.216L195.001 28.72H199.513L204.569 41.808H203.545L208.569 28.72H212.921L203.161 53.68H199.129Z" fill="#181930"/>
</svg>
